<svg id="gloves_x5F_and_x5F_shoes" enable-background="new 0 0 300 300" height="512" viewBox="0 0 300 300" width="512" xmlns="http://www.w3.org/2000/svg"><g><circle cx="164.393" cy="134" fill="#e5efef" r="86"/><g><path d="m50.608 165.956 14.672-64.275c.734-3.214 3.934-5.224 7.148-4.491 2.505.572 4.363 2.682 4.612 5.239l2.738 28.044 37.921-46.127 42.578 35.004-67.091 81.609z" fill="#edebdc"/><path d="m93.186 204.959c-.923 0-1.821-.319-2.54-.91l-42.578-35.004c-1.171-.962-1.697-2.503-1.359-3.98l14.672-64.274c.592-2.596 2.16-4.806 4.415-6.223 2.253-1.417 4.922-1.871 7.522-1.277 4.188.956 7.284 4.472 7.703 8.75l1.8 18.434 31.788-38.667c.674-.82 1.646-1.338 2.701-1.441 1.054-.105 2.109.217 2.929.891l42.578 35.004c1.707 1.403 1.953 3.923.55 5.63l-67.091 81.608c-.674.819-1.646 1.338-2.701 1.441-.13.012-.26.018-.389.018zm-38.128-40.524 37.578 30.894 62.011-75.429-36.398-29.924-35.381 43.037c-1.027 1.251-2.709 1.756-4.254 1.287-1.548-.471-2.66-1.828-2.817-3.438l-2.738-28.044c-.082-.845-.693-1.54-1.521-1.728-.689-.16-1.228.09-1.485.252s-.714.537-.872 1.229z" fill="#4c241d"/></g><g><path d="m37.045 180.845h55.12v22.967h-55.12z" fill="#bf7e68" transform="matrix(.773 .635 -.635 .773 136.837 2.733)"/><path d="m78.601 222.7c-.923 0-1.821-.319-2.54-.91l-42.578-35.004c-1.707-1.403-1.953-3.924-.55-5.63l14.585-17.741c.674-.82 1.646-1.338 2.701-1.441 1.056-.106 2.109.218 2.929.891l42.578 35.004c1.707 1.403 1.953 3.924.55 5.63l-14.585 17.741c-.674.819-1.646 1.338-2.701 1.441-.13.014-.26.019-.389.019zm-36.948-39.553 36.398 29.924 9.505-11.562-36.398-29.924z" fill="#4c241d"/></g><g><path d="m92.904 114.507 26.253-31.934c2.417-2.939 6.758-3.363 9.698-.947 2.939 2.417 3.363 6.758.947 9.698l-22.364 27.203" fill="#edebdc"/><path d="m107.436 122.527c-.895 0-1.794-.298-2.538-.91-1.707-1.403-1.953-3.923-.55-5.63l22.363-27.203c.49-.597.72-1.348.645-2.116-.075-.769-.445-1.461-1.041-1.952-1.231-1.013-3.057-.833-4.068.397l-26.253 31.934c-1.404 1.706-3.925 1.953-5.63.55-1.707-1.403-1.953-3.923-.55-5.63l26.253-31.934c3.814-4.64 10.691-5.309 15.328-1.497 2.247 1.847 3.641 4.459 3.923 7.354s-.579 5.727-2.427 7.974l-22.363 27.203c-.791.962-1.936 1.46-3.092 1.46z" fill="#4c241d"/></g><g><path d="m109.383 116.161 26.253-31.934c2.417-2.939 6.758-3.363 9.698-.947 2.939 2.417 3.363 6.758.947 9.698l-26.253 31.934" fill="#edebdc"/><path d="m120.025 128.912c-.895 0-1.794-.298-2.538-.91-1.707-1.403-1.953-3.923-.55-5.63l26.253-31.934c.49-.597.72-1.348.645-2.116-.075-.769-.445-1.461-1.041-1.952-1.231-1.012-3.057-.833-4.068.397l-26.253 31.933c-1.404 1.706-3.926 1.952-5.63.55-1.707-1.403-1.953-3.923-.55-5.63l26.253-31.934c3.814-4.638 10.692-5.309 15.328-1.497 2.247 1.847 3.641 4.459 3.923 7.354s-.579 5.727-2.427 7.974l-26.253 31.933c-.791.964-1.937 1.462-3.092 1.462z" fill="#4c241d"/></g><g><path d="m120.027 124.912 26.253-31.934c2.417-2.939 6.758-3.363 9.698-.947 2.939 2.417 3.363 6.758.947 9.698l-26.253 31.934" fill="#edebdc"/><path d="m130.67 137.663c-.895 0-1.794-.298-2.538-.91-1.707-1.403-1.953-3.923-.55-5.63l26.253-31.934c.49-.597.72-1.348.645-2.116-.075-.769-.445-1.461-1.041-1.952-1.231-1.012-3.057-.834-4.068.397l-26.253 31.933c-1.404 1.707-3.925 1.952-5.63.55-1.707-1.403-1.953-3.923-.55-5.63l26.253-31.934c3.814-4.639 10.692-5.309 15.328-1.497 2.247 1.847 3.641 4.459 3.923 7.354s-.579 5.727-2.427 7.974l-26.253 31.933c-.792.964-1.937 1.462-3.092 1.462z" fill="#4c241d"/></g><g><path d="m127.755 137.211 20.419-24.837c2.417-2.939 6.758-3.363 9.698-.947 2.939 2.417 3.363 6.758.947 9.698l-26.253 31.934" fill="#edebdc"/><path d="m132.564 157.058c-.895 0-1.794-.298-2.538-.91-1.707-1.403-1.953-3.923-.55-5.63l26.253-31.934c1.012-1.231.833-3.056-.397-4.068-1.231-1.012-3.058-.834-4.068.397l-20.418 24.837c-1.403 1.706-3.926 1.953-5.63.55-1.707-1.403-1.953-3.923-.55-5.63l20.418-24.837c3.815-4.64 10.692-5.308 15.328-1.497 4.639 3.813 5.31 10.689 1.497 15.328l-26.253 31.934c-.791.963-1.937 1.46-3.092 1.46z" fill="#4c241d"/></g><g><path d="m72.289 154.048c4.833-5.879 14.311-6.074 21.17-.435s8.501 14.975 3.668 20.854z" fill="#bf7e68"/><path d="m97.127 178.468c-.923 0-1.821-.319-2.54-.91l-24.837-20.42c-1.707-1.403-1.953-3.923-.55-5.63 3.091-3.76 7.648-5.889 12.833-5.996 4.932-.11 9.911 1.678 13.966 5.011s6.76 7.855 7.618 12.734c.898 5.107-.31 9.99-3.4 13.75-.674.82-1.646 1.338-2.701 1.441-.131.013-.26.02-.389.02zm-18.385-24.293 17.013 13.987c.2-1.11.198-2.296-.017-3.518-.527-2.999-2.239-5.819-4.819-7.939-2.581-2.122-5.681-3.245-8.722-3.193-1.24.024-2.405.251-3.455.663z" fill="#4c241d"/></g><g><path d="m226.602 232-108.209 11.2v5.652c0 6.157 4.991 11.148 11.148 11.148h52.462c6.071 0 12.086-1.158 17.723-3.413l22.667-7.787v11.2h28v-28z" fill="#6b4f5b"/><path d="m250.392 264h-28c-2.209 0-4-1.791-4-4v-5.597l-17.275 5.935c-6.11 2.431-12.541 3.662-19.114 3.662h-52.462c-8.353 0-15.148-6.796-15.148-15.148v-5.652c0-2.05 1.55-3.768 3.588-3.979l108.21-11.199c.137-.015.274-.021.412-.021h23.79c2.209 0 4 1.791 4 4v28c-.001 2.208-1.792 3.999-4.001 3.999zm-24-8h20v-20h-19.584l-104.416 10.807v2.045c0 3.941 3.207 7.148 7.148 7.148h52.462c5.585 0 11.048-1.052 16.237-3.127.062-.024.123-.048.186-.069l22.667-7.787c1.222-.42 2.571-.224 3.624.527 1.052.751 1.676 1.964 1.676 3.256z" fill="#4c241d"/></g><g><path d="m118.393 247.2v-5.637c0-9.897 6.624-18.57 16.172-21.174l31.834-8.682c8.783-2.395 15.822-8.889 18.932-17.446 6.833-18.797 8.304-76.834 8.621-101.141.071-5.449-.331-10.862-.575-16.305-.883-19.685 14.862-36.815 35.288-36.815 21.562 0 38.09 19.156 34.93 40.486l-12.374 83.526c-2.673 18.042-2.881 36.363-.619 54.46l-.209 17.528s-25.833-4.705-52.105 7.45c-5.05 2.336-10.477 3.749-16.041 3.749z" fill="#e7d1c4"/><path d="m182.247 251.199h-63.854c-2.209 0-4-1.791-4-4v-5.637c0-11.668 7.862-21.962 19.12-25.033l31.834-8.682c7.5-2.045 13.565-7.635 16.226-14.953 6.629-18.235 8.069-75.886 8.381-99.827.052-3.948-.15-7.83-.365-11.94-.072-1.376-.145-2.754-.206-4.133-.477-10.612 3.492-21.135 10.888-28.87 7.474-7.819 17.558-12.124 28.394-12.124 11.441 0 22.29 4.968 29.765 13.631 7.474 8.663 10.799 20.123 9.122 31.441l-12.374 83.526c-2.619 17.682-2.824 35.641-.607 53.378.022.181.033.362.031.544l-.209 17.528c-.015 1.178-.547 2.29-1.456 3.039-.908.749-2.099 1.058-3.261.849-.242-.043-24.974-4.3-49.708 7.145-5.909 2.733-11.871 4.118-17.721 4.118zm-59.855-8h59.854c4.682 0 9.514-1.137 14.361-3.38 20.716-9.585 40.951-9.168 49.838-8.347l.152-12.777c-2.271-18.368-2.047-36.962.665-55.27l12.375-83.525c1.336-9.015-1.312-18.143-7.266-25.042s-14.593-10.858-23.706-10.858c-8.631 0-16.662 3.428-22.613 9.653-5.894 6.165-9.057 14.542-8.678 22.983.061 1.36.132 2.717.203 4.074.212 4.058.431 8.254.376 12.462-.394 30.243-2.068 83.769-8.861 102.455-3.547 9.758-11.637 17.211-21.64 19.939l-31.834 8.682c-7.787 2.124-13.226 9.244-13.226 17.314z" fill="#4c241d"/></g><g><path d="m228.665 40c-3.599 0-7.029.581-10.272 1.565v48.435c0 5.523 4.477 10 10 10s10-4.477 10-10v-48.595c-3.087-.882-6.334-1.405-9.728-1.405z" fill="#bf7e68"/><path d="m228.392 104c-7.72 0-14-6.28-14-14v-48.435c0-1.762 1.152-3.316 2.839-3.828 7.38-2.24 14.798-2.312 22.261-.178 1.717.491 2.9 2.06 2.9 3.846v48.595c0 7.719-6.28 14-14 14zm-6-59.336v45.336c0 3.309 2.691 6 6 6s6-2.691 6-6v-45.442c-4.05-.779-7.983-.736-12 .106z" fill="#4c241d"/></g><g><circle cx="228.393" cy="126" fill="#bf7e68" r="14"/><path d="m228.392 144c-9.925 0-18-8.075-18-18s8.075-18 18-18 18 8.075 18 18-8.075 18-18 18zm0-28c-5.514 0-10 4.486-10 10s4.486 10 10 10 10-4.486 10-10-4.486-10-10-10z" fill="#4c241d"/></g></g></svg>