<svg id="hat" enable-background="new 0 0 300 300" height="512" viewBox="0 0 300 300" width="512" xmlns="http://www.w3.org/2000/svg"><g><g><circle cx="150" cy="146" fill="#e5efef" r="86"/></g><g><circle cx="162.384" cy="49.3" fill="#bf7e68" r="13.3"/><path d="m162.384 66.601c-9.54 0-17.301-7.761-17.301-17.301s7.761-17.3 17.301-17.3 17.3 7.761 17.3 17.3-7.761 17.301-17.3 17.301zm0-26.601c-5.128 0-9.301 4.172-9.301 9.3s4.172 9.301 9.301 9.301 9.3-4.172 9.3-9.301-4.172-9.3-9.3-9.3z" fill="#4c241d"/></g><g><path d="m79.921 136c0-45.685 36.92-82.719 82.463-82.719s82.462 37.034 82.462 82.719z" fill="#6b4f5b"/><path d="m244.846 140.006h-164.925c-2.212 0-4.006-1.794-4.006-4.006 0-47.821 38.79-86.726 86.469-86.726s86.469 38.905 86.469 86.726c0 2.212-1.794 4.006-4.007 4.006zm-160.819-8.013h156.713c-2.086-41.549-36.434-74.707-78.356-74.707s-76.271 33.159-78.357 74.707z" fill="#4c241d"/></g><path d="m104.75 103.021c-.757 0-1.522-.215-2.201-.663-1.843-1.218-2.35-3.699-1.132-5.542 8.422-12.746 20.9-22.73 35.137-28.115 2.065-.783 4.375.259 5.156 2.326.782 2.066-.26 4.375-2.326 5.156-12.677 4.795-23.79 13.688-31.292 25.042-.77 1.165-2.043 1.796-3.342 1.796z" fill="#fff"/><g><path d="m252 159.684h-204v-3.684c0-11.046 8.954-20 20-20h184z" fill="#e7d1c4"/><path d="m252 163.684h-204c-2.209 0-4-1.791-4-4v-3.684c0-13.234 10.766-24 24-24h184c2.209 0 4 1.791 4 4v23.684c0 2.209-1.791 4-4 4zm-199.997-8h195.997v-15.684h-180c-8.717 0-15.828 7.007-15.997 15.684z" fill="#4c241d"/></g><g><path d="m221.946 160.304h-21.651l-26.387 23.43c-4.885 4.338-12.368 3.866-16.67-1.05l-20.284-23.181h-20.048l33.493 37.143c6.18 6.854 9.601 15.755 9.601 24.984v36.37c0 3.314 2.686 6 6 6 3.314 0 6-2.686 6-6v-35.22c0-10.405 4.346-20.338 11.988-27.4z" fill="#edebdc"/><path d="m166 268c-5.514 0-10-4.486-10-10v-36.371c0-8.253-3.044-16.175-8.572-22.306l-33.493-37.142c-1.058-1.174-1.326-2.86-.684-4.304s2.074-2.375 3.655-2.375h20.047c1.153 0 2.25.498 3.01 1.366l20.285 23.181c1.373 1.57 3.276 2.506 5.357 2.638 2.088.122 4.087-.56 5.647-1.944l26.387-23.43c.732-.65 1.677-1.009 2.656-1.009h21.651c1.646 0 3.125 1.009 3.725 2.542s.199 3.278-1.01 4.396l-37.958 35.075c-6.802 6.287-10.703 15.203-10.703 24.464v35.219c0 5.514-4.486 10-10 10zm-40.101-104.497 27.471 30.463c6.855 7.604 10.63 17.428 10.63 27.663v36.371c0 1.103.897 2 2 2s2-.897 2-2v-35.22c0-11.484 4.838-22.543 13.273-30.338l30.45-28.138h-9.909l-25.25 22.421c-3.166 2.811-7.239 4.213-11.462 3.945-4.225-.267-8.087-2.168-10.874-5.354l-19.089-21.815h-9.24z" fill="#4c241d"/></g></g></svg>