<svg id="horse_x5F_pose9" enable-background="new 0 0 300 300" height="512" viewBox="0 0 300 300" width="512" xmlns="http://www.w3.org/2000/svg"><g><circle cx="162" cy="144" fill="#e5efef" r="86"/><g><path d="m74.48 267.76 13.52-13.76-8.4-48.8s-15.36-15.36-10.24-35.84l20.48 10.24 5.12 51.2-6.96 23.2" fill="#e7d1c4"/><path d="m74.48 271.76c-1.012 0-2.024-.381-2.804-1.146-1.575-1.548-1.598-4.081-.05-5.657l12.083-12.298-7.851-45.611c-3.486-3.931-15.284-19.039-10.38-38.658.295-1.177 1.107-2.157 2.209-2.664 1.103-.507 2.375-.486 3.461.057l20.48 10.24c1.228.614 2.055 1.814 2.191 3.18l5.119 51.2c.052.521.001 1.046-.149 1.547l-6.96 23.2c-.201.671-.563 1.251-1.031 1.708l-13.466 13.706c-.781.796-1.817 1.196-2.852 1.196zm-2.064-96.4c-1.236 15.549 9.889 26.887 10.013 27.012.585.584.974 1.335 1.114 2.15l5.514 32.036 1.845-6.148-4.821-48.218z" fill="#4c241d"/></g><g><path d="m137.548 250.904 20.279-26.836c1.672-2.279 2.573-5.032 2.573-7.859v-6.654c0-6.15 1.995-12.135 5.685-17.055l9.675-12.9-15.36-25.6-20.48 15.36 8.96 35.842c.842 3.37.926 6.885.245 10.291l-4.085 20.427-15.36 30.72" fill="#e7d1c4"/><path d="m129.678 270.641c-.602 0-1.212-.136-1.786-.423-1.976-.988-2.776-3.391-1.789-5.366l7.842-15.684c.016-.033.032-.065.049-.098l7.229-14.46 3.981-19.902c.561-2.808.49-5.76-.204-8.536l-8.96-35.843c-.39-1.562.193-3.205 1.48-4.17l20.48-15.359c.906-.679 2.061-.944 3.169-.725 1.111.218 2.079.896 2.661 1.867l15.36 25.6c.837 1.395.746 3.157-.229 4.458l-9.675 12.9c-3.15 4.201-4.886 9.405-4.886 14.655v6.654c0 3.704-1.158 7.239-3.348 10.225l-20.092 26.589-7.702 15.406c-.701 1.402-2.114 2.212-3.58 2.212zm14.767-99.675 8.316 33.266c.979 3.917 1.079 8.082.287 12.045l-2.035 10.173 3.622-4.794c1.143-1.558 1.765-3.458 1.765-5.447v-6.654c0-6.97 2.304-13.879 6.485-19.455l8.062-10.749-11.695-19.49z" fill="#4c241d"/></g><g><path d="m194.986 126h12.763c6.766 0 12.251 5.485 12.251 12.251v56.195c0 7.647 1.303 15.237 3.852 22.446l3.108 8.787-14.337-30.004c-3.044-6.37-4.623-13.34-4.623-20.4v-23.455c0-6.352-2.188-12.51-6.197-17.438z" fill="#e7d1c4"/><path d="m226.962 229.681c-1.498 0-2.928-.846-3.611-2.276l-14.336-30.004c-3.28-6.866-5.015-14.516-5.015-22.125v-23.456c0-5.417-1.882-10.714-5.299-14.914l-6.818-8.382c-.974-1.197-1.172-2.848-.509-4.242s2.069-2.282 3.612-2.282h12.763c8.961 0 16.251 7.29 16.251 16.251v56.195c0 7.211 1.219 14.314 3.624 21.112l3.107 8.788c.709 2.005-.275 4.215-2.24 5.029-.5.208-1.019.306-1.529.306zm-23.567-99.681 1.512 1.858c4.573 5.622 7.093 12.712 7.093 19.962v23.456c0 6.239 1.382 12.513 4 18.179v-55.205c0-4.55-3.701-8.251-8.251-8.251h-4.354z" fill="#4c241d"/></g><path d="m92 278c-1.023 0-2.048-.391-2.828-1.171-1.562-1.562-1.562-4.095 0-5.657l12-12c1.561-1.562 4.096-1.562 5.656 0 1.562 1.562 1.562 4.095 0 5.657l-12 12c-.78.78-1.805 1.171-2.828 1.171z" fill="#4c241d"/><path d="m180.878 275.761c-.602 0-1.212-.136-1.786-.423-1.976-.988-2.776-3.391-1.789-5.367l8.794-17.588c.989-1.977 3.394-2.777 5.367-1.789 1.976.988 2.776 3.391 1.789 5.366l-8.794 17.588c-.701 1.403-2.114 2.213-3.581 2.213z" fill="#4c241d"/><g><path d="m204.901 210.701-8.66-25.981 5.642-11.284c6.118-12.235 6.118-26.637 0-38.873l-.215-.429c-6.163-12.326-20.06-18.717-33.429-15.375l-18.079 4.52s-15.68 3.92-36.75-8.821c-5.998-3.627-9.527-10.249-9.671-17.256-.188-9.161.382-17.379 5.461-20.004l14.417 10.812c2.944 2.208 7.076 2.546 10.061.394 3.914-2.822 4.543-8.21 1.648-11.829l-15.886-19.855v-.833c0-5.682-3.459-10.791-8.735-12.901l-6.625-2.65v-14.336c-7.007 3.504-10.332 10.259-11.763 14.221-2.334.886-4.486 2.305-6.243 4.235-4.447 4.885-10.204 11.504-15.62 18.62-7.923 10.411-14.454 29.597-14.454 42.679v36.245c0 9.038 4.698 21.631 10.344 28.688 3.034 3.793 7.016 7.206 12.136 8.913l15.36 30.72 10.16 51.679 3.77-67.854c.151-2.722.971-5.365 2.387-7.695 2.63-4.328 7.093-7.218 12.119-7.846l33.005-4.126 35.94 35.939c3.149 3.149 4.578 7.629 3.834 12.021l-5.379 31.732 14.818-34.15c1.278-2.949 1.424-6.268.407-9.32z" fill="#bf7e68"/><path d="m103.997 266c-1.896 0-3.551-1.342-3.922-3.229l-10.055-51.147-14.412-28.824c-4.627-1.886-8.787-5.113-12.388-9.613-6.397-7.998-11.22-21.405-11.22-31.187v-36.245c0-13.805 6.851-34.037 15.271-45.101 5.705-7.497 11.766-14.411 15.845-18.891 1.708-1.875 3.785-3.424 6.081-4.545 1.89-4.502 5.771-11.134 13.094-14.796 1.239-.62 2.714-.554 3.892.175 1.18.729 1.897 2.017 1.897 3.403v11.628l4.111 1.645c6.653 2.661 11.014 8.912 11.24 16.033l15.018 18.772c2.081 2.6 3.016 5.985 2.565 9.287-.458 3.35-2.232 6.292-4.998 8.286-4.266 3.078-10.353 2.897-14.799-.438l-11.726-8.793c-1.981 3.644-1.821 11.42-1.754 14.703.119 5.767 3.086 11.1 7.741 13.915 19.202 11.609 33.593 8.39 33.734 8.357l18.056-4.514c15.307-3.827 30.92 3.355 37.977 17.466l.216.434c6.644 13.286 6.644 29.155-.002 42.446l-4.901 9.801 8.137 24.41c1.331 3.992 1.142 8.316-.533 12.178l-14.817 34.149c-.806 1.855-2.868 2.818-4.809 2.242-1.939-.576-3.144-2.509-2.805-4.503l5.379-31.731c.526-3.108-.49-6.295-2.719-8.524l-34.557-34.556-31.063 3.883c-3.836.479-7.188 2.65-9.196 5.954-1.07 1.763-1.697 3.782-1.812 5.84l-3.77 67.854c-.112 2.014-1.705 3.629-3.717 3.769-.093.004-.186.007-.279.007zm-3.917-231.661c-2.07 2.567-3.317 5.352-4.001 7.242-.396 1.097-1.251 1.966-2.342 2.38-1.827.694-3.41 1.767-4.706 3.189-3.971 4.361-9.865 11.085-15.395 18.35-7.391 9.712-13.636 28.147-13.636 40.255v36.245c0 7.915 4.247 19.663 9.468 26.189 3.033 3.792 6.491 6.354 10.278 7.617 1.006.335 1.838 1.057 2.312 2.005l15.36 30.72c.16.322.277.665.347 1.018l4.009 20.394 2.001-36.018c.188-3.366 1.212-6.668 2.964-9.55 3.283-5.404 8.766-8.953 15.04-9.738l33.005-4.125c1.23-.15 2.451.268 3.324 1.141l35.939 35.939c3.887 3.887 5.748 9.373 5.056 14.801l1.719-3.961c.89-2.049.99-4.345.283-6.463 0 0 0 0 0-.001l-8.66-25.981c-.335-1.006-.257-2.104.217-3.053l5.642-11.284c5.526-11.051 5.526-24.245 0-35.295l-.216-.434c-5.363-10.727-17.241-16.188-28.878-13.278l-18.08 4.52c-.706.177-17.552 4.168-39.789-9.278-7.087-4.285-11.423-11.984-11.601-20.596-.194-9.431.219-19.813 7.624-23.64 1.361-.703 3.008-.566 4.235.354l14.417 10.812c1.649 1.237 3.887 1.383 5.321.35.971-.7 1.592-1.722 1.75-2.879s-.156-2.296-.885-3.207l-15.886-19.857c-.567-.709-.877-1.591-.877-2.499v-.833c0-4.07-2.441-7.676-6.22-9.188l-6.626-2.65c-1.519-.607-2.515-2.078-2.515-3.714v-5.999z" fill="#4c241d"/></g><path d="m109.2 45.36c-2.209 0-4-1.791-4-4 0-.694.177-6.953 6.292-13.068 1.561-1.562 4.096-1.562 5.656 0 1.562 1.562 1.562 4.095 0 5.657-3.778 3.779-3.948 7.376-3.948 7.411 0 2.209-1.791 4-4 4z" fill="#4c241d"/></g></svg>