<svg id="horse_x5F_pose5" enable-background="new 0 0 300 300" height="512" viewBox="0 0 300 300" width="512" xmlns="http://www.w3.org/2000/svg"><g><circle cx="181" cy="139" fill="#e5efef" r="86"/><g><path d="m151 215.425v-5.234l21.511-15.702-10.755-26.17 21.511-5.234 6.132 14.921c2.662 6.478.216 13.93-5.768 17.57l-32.631 19.849v20.936" fill="#e7d1c4"/><path d="m151 240.361c-2.209 0-4-1.791-4-4v-26.17c0-1.277.61-2.478 1.642-3.231l18.977-13.853-9.563-23.268c-.443-1.079-.394-2.297.135-3.336s1.486-1.795 2.619-2.071l21.51-5.234c1.92-.466 3.895.538 4.646 2.366l6.132 14.921c3.432 8.351.324 17.816-7.389 22.508l-30.709 18.681v18.688c0 2.208-1.791 3.999-4 3.999zm16.225-69.257 8.985 21.864c.308.75.374 1.55.223 2.304l5.118-3.114c4.329-2.633 6.072-7.946 4.146-12.632l-4.826-11.742z" fill="#4c241d"/></g><g><path d="m220.192 110.744 8.754-8.754c3.418-3.418 2.483-9.181-1.841-11.343l-14.333-7.167c-4.752-2.376-7.034-7.885-5.354-12.925 1.419-4.256 5.074-7.379 9.499-8.117l24.211-4.035-10.639 10.639c-2.55 2.55-1.977 6.827 1.154 8.616l18.156 10.375c5.423 3.099 5.423 10.918 0 14.017l-24.374 13.928z" fill="#e7d1c4"/><path d="m225.427 119.978c-1.036 0-2.06-.401-2.83-1.172l-5.234-5.234c-1.562-1.562-1.562-4.095 0-5.657l8.753-8.753c.709-.709 1.024-1.684.863-2.673-.161-.99-.767-1.815-1.665-2.264l-14.333-7.167c-6.49-3.245-9.654-10.883-7.359-17.768 1.892-5.676 6.734-9.813 12.636-10.797l24.211-4.036c1.717-.287 3.418.569 4.214 2.116.796 1.546.501 3.429-.728 4.659l-10.639 10.639c-.447.447-.454.965-.417 1.234s.179.767.727 1.081l18.156 10.375c3.809 2.176 6.083 6.095 6.083 10.481 0 4.387-2.273 8.306-6.082 10.482l-24.374 13.928c-.619.354-1.303.526-1.982.526zm.421-9.234.246.246 21.721-12.412c1.852-1.058 2.052-2.825 2.051-3.536 0-.71-.2-2.477-2.051-3.535l-18.156-10.375c-2.584-1.477-4.292-4.015-4.688-6.964-.395-2.95.585-5.849 2.689-7.953l1.813-1.813-11.899 1.983c-2.972.495-5.41 2.578-6.362 5.436-1.044 3.132.395 6.606 3.348 8.083l14.333 7.167c3.225 1.612 5.406 4.579 5.983 8.137.577 3.559-.554 7.062-3.103 9.612z" fill="#4c241d"/></g><path d="m125.146 98.747c-6.25 0-9.644-3.291-9.847-3.493l5.657-5.657-.085-.082c.145.128 3.655 3.09 11.17-.667 1.975-.987 4.379-.188 5.366 1.789.988 1.976.187 4.378-1.789 5.366-4.079 2.04-7.581 2.744-10.472 2.744z" fill="#4c241d"/><g><path d="m235.894 110.744s-26.17-15.702-47.106 0-36.638 10.468-36.638 10.468c10.468-15.702 5.234-41.872 5.234-41.872-1.831-12.814-6.866-21.134-12.635-26.552 2.164-6.609 2.167-15.32 2.167-15.32l-9.842 9.923c-3.853-1.907-8.071-2.619-12.184-2.116 2.301-10.313-4.145-18.275-4.145-18.275-3.925 3.925-3.225 14.964-2.63 20.24-2.3 1.082-4.451 2.543-6.32 4.412l-6.441 6.441c-3.55 3.55-5.545 8.365-5.545 13.386v7.861l-9.514 15.857c-2.394 3.99-1.811 9.299 1.771 12.27 3.501 2.903 8.288 2.87 11.662.339l17.018-12.763-5.234 15.702-20.225 29.703c-5.399 7.929-8.286 17.3-8.286 26.892v11.448l-12.532 17.637c-3.944 5.551-6.064 12.192-6.064 19.002l-31.405 57.573 36.638-52.341 28.77-33.565c1.421-1.658 3.952-1.755 5.496-.211 1.35 1.35 1.47 3.5.276 4.992l-18.841 23.551-41.872 52.34 73.277-62.809c20.936-5.234 36.638-20.936 36.638-20.936l41.872-15.702v14.933c0 3.948.919 7.842 2.685 11.374l2.549 5.098-19.178 38.933-12.226 13.408 42.13-42.13c2.803-2.803 4.176-6.735 3.717-10.672-1.585-13.59 6.493-25.708 6.493-25.708 36.64-36.641 10.47-62.811 10.47-62.811z" fill="#bf7e68"/><path d="m36.997 277c-.721 0-1.45-.195-2.105-.601-1.804-1.119-2.42-3.451-1.404-5.315l30.931-56.706c.204-7.305 2.54-14.293 6.788-20.272l11.793-16.596v-10.171c0-10.438 3.105-20.516 8.98-29.144l19.912-29.244 1.009-3.027-6.774 5.081c-4.964 3.723-11.798 3.535-16.615-.46-4.984-4.132-6.122-11.616-2.648-17.406l8.945-14.907v-6.753c0-6.125 2.385-11.884 6.717-16.215l6.44-6.441c1.466-1.466 3.11-2.752 4.909-3.843-.846-10.283.51-17.278 4.042-20.81.801-.802 1.907-1.221 3.038-1.166 1.132.06 2.186.597 2.899 1.478.269.331 5.691 7.161 5.529 16.708 2.296.175 4.567.665 6.758 1.458l7.934-7.999c1.142-1.15 2.865-1.498 4.364-.881s2.477 2.079 2.476 3.7c0 .34-.023 7.545-1.675 14.154 6.416 6.816 10.479 15.902 12.088 27.046.385 1.99 4.229 23.152-2.934 39.405 5.679.125 15.738-1.339 27.993-10.531 22.825-17.118 50.402-.928 51.564-.23.28.168.539.371.771.602.303.304 7.458 7.575 9.616 19.798 3.51 19.891-8.73 37.218-19.768 48.349-1.119 1.824-6.927 11.914-5.665 22.735.604 5.181-1.168 10.271-4.862 13.964l-42.129 42.13c-1.537 1.536-4.019 1.566-5.591.064-1.572-1.5-1.657-3.982-.193-5.588l11.844-12.989 18.05-36.643-1.662-3.322c-2.033-4.066-3.107-8.618-3.107-13.163v-9.16l-35.69 13.384c-3.222 3.049-17.779 16.042-36.922 21.124l-72.572 62.204c-1.567 1.343-3.899 1.273-5.383-.161-.242-.234-.448-.491-.619-.766l-3.792 5.417c-.775 1.11-2.015 1.709-3.28 1.709zm68.254-95.215c2.046 0 4.03.817 5.482 2.269 2.796 2.796 3.042 7.232.571 10.32l-34.126 42.658 40.964-35.112c.471-.404 1.03-.693 1.633-.843 19.559-4.89 34.633-19.737 34.783-19.887.403-.401.889-.715 1.421-.914l41.873-15.702c1.228-.461 2.604-.29 3.683.458s1.722 1.976 1.722 3.288v14.932c0 3.31.782 6.625 2.262 9.585l2.549 5.098c.56 1.119.563 2.435.011 3.557l-9.633 19.556 13.942-13.942c1.954-1.954 2.892-4.644 2.573-7.38-1.736-14.878 6.775-27.845 7.138-28.39.146-.219.313-.423.5-.61 14.218-14.217 20.228-28.22 17.863-41.62-1.463-8.292-5.863-13.794-7.08-15.185-3.423-1.864-25.127-12.774-42.192.025-22.355 16.767-39.579 11.304-40.303 11.063-1.183-.395-2.114-1.317-2.519-2.497-.404-1.179-.236-2.48.456-3.517 9.439-14.16 4.689-38.624 4.64-38.87-.015-.072-.027-.145-.038-.218-1.476-10.333-5.316-18.476-11.414-24.202-1.132-1.063-1.546-2.685-1.063-4.161.338-1.032.617-2.127.849-3.234l-1.883 1.898c-1.212 1.222-3.071 1.531-4.615.768-3.12-1.545-6.55-2.141-9.923-1.73-1.235.154-2.477-.285-3.347-1.175-.255 1.201-1.056 2.246-2.21 2.789-1.972.928-3.72 2.146-5.195 3.621l-6.441 6.441c-2.82 2.82-4.374 6.569-4.374 10.558v7.861c0 .725-.197 1.437-.57 2.058l-9.515 15.857c-1.459 2.433-1.075 5.499.895 7.132 1.957 1.623 4.715 1.712 6.708.218l17.018-12.764c1.4-1.05 3.319-1.067 4.739-.045 1.419 1.023 2.009 2.85 1.456 4.51l-5.234 15.702c-.117.35-.281.682-.489.987l-20.225 29.703c-4.967 7.294-7.593 15.815-7.593 24.64v11.447c0 .831-.258 1.64-.739 2.317l-12.532 17.637c-3.483 4.902-5.324 10.672-5.324 16.685 0 .193-.014.386-.042.576l27.008-31.51c1.4-1.633 3.436-2.618 5.585-2.7.099-.004.198-.006.295-.006zm-28.448 41.329-8.851 12.644 27.818-34.773z" fill="#4c241d"/></g></g></svg>