<svg id="horse_x5F_pose1" enable-background="new 0 0 300 300" height="512" viewBox="0 0 300 300" width="512" xmlns="http://www.w3.org/2000/svg"><g><g><circle cx="172.077" cy="129.536" fill="#e5efef" r="86"/></g><g><path d="m183.525 194.935-9.839 16.297-35.77 35.77 24.783-37.174c2.428-3.642 3.109-8.177 1.856-12.372l-6.101-20.43v-17.491h31.623v32z" fill="#e7d1c4"/><path d="m137.915 251.002c-.896 0-1.794-.299-2.535-.907-1.59-1.304-1.933-3.601-.792-5.312l24.783-37.174c1.774-2.661 2.266-5.944 1.351-9.008l-6.101-20.43c-.111-.372-.167-.757-.167-1.145v-17.491c0-2.209 1.791-4 4-4h31.624c2.209 0 4 1.791 4 4v32c0 1.494-.832 2.863-2.158 3.551l-5.552 2.88-9.257 15.333c-.167.277-.367.532-.596.761l-35.77 35.77c-.778.778-1.801 1.172-2.83 1.172zm24.539-74.56 5.934 19.87c1.599 5.353.738 11.088-2.36 15.735l-2.375 3.563 6.862-6.862 9.587-15.88c.381-.631.928-1.144 1.582-1.483l4.395-2.28v-25.569h-23.624v12.906zm11.232 34.79h.01z" fill="#4c241d"/></g><g><path d="m90.077 163.536-32.531 15.517c-4.563 2.177-7.469 6.783-7.469 11.839v36.644l7.057-29.144c1.269-5.239 5.513-9.234 10.82-10.183l26.123-4.673z" fill="#e7d1c4"/><path d="m50.081 231.536c-.158 0-.317-.01-.478-.029-2.011-.24-3.526-1.946-3.526-3.972v-36.644c0-6.561 3.826-12.625 9.747-15.449l32.531-15.518c1.113-.531 2.41-.519 3.513.034 1.104.552 1.89 1.583 2.132 2.792l4 20c.211 1.054-.012 2.149-.617 3.037-.605.889-1.542 1.496-2.601 1.685l-26.124 4.673c-3.744.67-6.741 3.491-7.636 7.187l-7.057 29.144c-.439 1.813-2.061 3.06-3.884 3.06zm37.082-62.178-27.894 13.306c-3.154 1.504-5.191 4.734-5.191 8.229v3.999c2.264-5.499 7.2-9.552 13.172-10.62l22.104-3.954z" fill="#4c241d"/></g><path d="m209.459 272.465c-.321 0-.647-.039-.973-.121-2.143-.536-3.446-2.708-2.91-4.851l6.087-24.349c.536-2.143 2.708-3.447 4.851-2.91 2.143.536 3.446 2.708 2.91 4.851l-6.087 24.349c-.454 1.818-2.085 3.031-3.878 3.031z" fill="#4c241d"/><g><path d="m66.376 82.46c14.308 0 7.154 35.77 7.154 35.77-14.308 42.924 14.308 57.232 14.308 57.232l22.24 72.073v-72c50.078 7.154 63.609-7.228 63.609-7.228 0 28.616 35.77 42.924 35.77 42.924l6.087 32.883 6.798-27.194c.918-3.671.492-7.55-1.2-10.934l-11.685-23.371 11.364-22.729c2.229-4.459 3.069-9.514 2.393-14.453-4.36-31.845-33.452-30.146-44.906-28.195-3.635.619-7.308.99-10.996.99h-22.782c-4.38 0-8.732-.706-12.887-2.091l-8.583-2.861c-3.847-1.282-6.537-4.746-6.891-8.785-1.818-20.779-11.993-35.956-20.983-45.53-5.005-5.33-11.393-8.993-18.337-10.853 4.98-12.62-10.77-16.574-10.77-16.574l.299 15.154c-7.902 0-14.308 6.406-14.308 14.308l-17.421 27.359c-2.54 3.99-1.425 9.279 2.511 11.902 2.968 1.978 6.843 1.943 9.774-.088z" fill="#bf7e68"/><path d="m110.074 251.536c-1.73 0-3.296-1.125-3.819-2.821l-21.782-70.589c-2.667-1.689-8.19-5.801-12.585-13.125-9.591-15.986-6.537-34.766-2.234-47.792 1.886-9.637 2.829-25.05-.94-29.644-.33-.402-.669-.683-1.059-.86l-18.028 16.422c-.131.119-.27.23-.416.331-4.308 2.986-9.91 3.036-14.271.129-5.703-3.802-7.347-11.599-3.667-17.38l16.833-26.438c.543-8.147 6.441-14.854 14.197-16.622l-.227-11.532c-.025-1.246.533-2.432 1.508-3.208.976-.776 2.255-1.055 3.465-.75.982.246 9.697 2.61 13.291 9.607.963 1.875 1.814 4.644 1.332 8.18 6.302 2.305 11.924 5.986 16.427 10.781 8.984 9.568 20.103 25.648 22.052 47.919.216 2.471 1.854 4.566 4.171 5.339l8.584 2.861c3.754 1.251 7.664 1.886 11.622 1.886h22.782c3.259 0 6.636-.305 10.324-.934 8.308-1.415 24.004-2.496 35.795 6.153 7.57 5.555 12.195 14.115 13.746 25.442.789 5.767-.172 11.571-2.779 16.785l-10.47 20.939 10.791 21.582c2.118 4.236 2.652 9.099 1.503 13.693l-6.798 27.194c-.456 1.826-2.146 3.081-4.004 3.028-1.881-.058-3.467-1.419-3.809-3.27l-5.702-30.802c-3.293-1.526-10.042-4.98-16.836-10.416-10.411-8.329-16.792-18.049-18.745-28.432-8.066 3.946-24.913 8.742-56.25 4.909v67.434c0 1.979-1.447 3.66-3.404 3.955-.199.031-.399.046-.598.046zm63.613-87.228c.495 0 .995.092 1.473.282 1.525.604 2.526 2.078 2.526 3.718 0 25.612 32.923 39.078 33.255 39.21 1.274.51 2.198 1.637 2.448 2.986l2.737 14.786 2.335-9.339c.686-2.743.367-5.646-.897-8.175l-11.686-23.371c-.563-1.126-.563-2.452 0-3.578l11.364-22.729c1.883-3.767 2.578-7.958 2.008-12.122-1.246-9.098-4.796-15.853-10.553-20.077-9.412-6.906-22.661-5.919-29.719-4.717-4.137.705-7.953 1.047-11.667 1.047h-22.782c-4.819 0-9.581-.772-14.152-2.296l-8.583-2.861c-5.344-1.781-9.116-6.583-9.611-12.231-1.749-19.99-11.794-34.494-19.914-43.14-4.367-4.65-10.057-8.014-16.456-9.728-1.102-.295-2.024-1.046-2.538-2.064-.513-1.019-.567-2.208-.148-3.268.885-2.243.92-4.108.109-5.703-.648-1.274-1.788-2.334-3.035-3.178l.174 8.852c.021 1.074-.391 2.112-1.143 2.879-.752.768-1.781 1.2-2.856 1.2-5.684 0-10.308 4.624-10.308 10.308 0 .761-.217 1.506-.626 2.148l-17.419 27.356c-1.361 2.138-.753 5.021 1.356 6.426 1.548 1.033 3.522 1.056 5.088.077l19.215-17.503c.737-.671 1.697-1.043 2.694-1.043 3.415 0 6.363 1.395 8.526 4.034 7.699 9.392 3.1 33.771 2.55 36.521-.033.163-.075.323-.127.48-12.964 38.89 11.282 51.866 12.32 52.399.958.492 1.697 1.36 2.015 2.389l14.417 46.724v-45.471c0-1.16.503-2.262 1.379-3.022.876-.759 2.038-1.099 3.187-.938 46.713 6.675 60.009-5.88 60.13-6.008.771-.821 1.832-1.26 2.914-1.26zm-126.753-64.139h.01z" fill="#4c241d"/></g><g fill="#4c241d"><path d="m94.993 265.31c-1.085 0-2.166-.438-2.955-1.303-1.49-1.631-1.375-4.162.256-5.651l15.085-13.775c1.632-1.49 4.162-1.375 5.651.256 1.49 1.631 1.375 4.162-.256 5.651l-15.085 13.775c-.767.702-1.733 1.047-2.696 1.047z"/><path d="m65.502 240.695c-.563 0-1.136-.12-1.68-.372l-15.427-7.154c-2.004-.929-2.875-3.308-1.946-5.312.93-2.005 3.308-2.875 5.312-1.946l15.427 7.154c2.004.929 2.875 3.308 1.946 5.312-.677 1.459-2.123 2.318-3.632 2.318z"/><path d="m137.916 265.31c-2.209 0-4-1.791-4-4v-14.308c0-2.209 1.791-4 4-4s4 1.791 4 4v14.308c0 2.209-1.791 4-4 4z"/></g><g><path d="m212.751 123.536h17.944c10.704 0 19.381 8.677 19.381 19.381v17.762c0 10.166 4.614 25.403 10.252 33.861l6.359 9.538s-36.611-7.081-36.611-28.543v-35.872c0-4.955-2.881-9.458-7.379-11.535z" fill="#e7d1c4"/><path d="m266.689 208.078c-.252 0-.506-.024-.76-.073-1.627-.315-39.852-7.989-39.852-32.47v-35.872c0-3.383-1.985-6.485-5.056-7.904l-9.946-4.593c-1.706-.787-2.633-2.655-2.23-4.49.403-1.834 2.028-3.142 3.907-3.142h17.944c12.893 0 23.381 10.489 23.381 23.381v17.762c0 9.362 4.387 23.853 9.581 31.643l6.359 9.538c.895 1.342.896 3.091.002 4.434-.75 1.129-2.008 1.786-3.33 1.786zm-37.837-80.543c3.272 3.107 5.225 7.479 5.225 12.128v35.872c0 7.208 5.357 13.486 15.924 18.658 2.5 1.224 5.018 2.239 7.333 3.063l-.333-.499c-6.126-9.188-10.924-25.037-10.924-36.08v-17.762c0-8.481-6.9-15.381-15.381-15.381h-1.844z" fill="#4c241d"/></g><path d="m60.992 50.634c-.202 0-.406-.015-.612-.047-2.163-.332-3.653-2.338-3.355-4.498.054-.498.306-4.455-4.736-6.976-1.976-.988-2.776-3.391-1.789-5.367.988-1.976 3.391-2.776 5.367-1.789 10.487 5.243 9.137 14.875 9.074 15.283-.304 1.978-2.008 3.394-3.949 3.394z" fill="#4c241d"/></g></svg>