<svg id="horse_x5F_pose2" enable-background="new 0 0 300 300" height="512" viewBox="0 0 300 300" width="512" xmlns="http://www.w3.org/2000/svg"><g><g><circle cx="143.109" cy="124" fill="#e5efef" r="86"/></g><g><path d="m177.613 236.252 35.496-41.412-23.664-41.412-17.748 11.832 19.842 25.564c3.399 4.38 3.962 10.329 1.445 15.269l-15.371 30.159 5.916 17.748" fill="#e7d1c4"/><path d="m183.528 258c-1.675 0-3.235-1.06-3.794-2.736l-5.893-17.678c-.101-.287-.169-.583-.203-.883-.001 0 0-.002 0-.004 0-.001 0-.002 0-.003-.009-.082-.016-.163-.02-.245-.036-.713.119-1.438.469-2.089l15.333-30.085c1.805-3.542 1.396-7.86-1.041-11l-19.842-25.563c-.681-.877-.967-1.999-.789-3.095.179-1.097.805-2.069 1.729-2.686l17.748-11.832c.923-.615 2.062-.819 3.138-.565 1.079.255 2.004.946 2.554 1.909l23.664 41.412c.838 1.468.664 3.304-.436 4.587l-34.022 39.692 5.2 15.599c.698 2.096-.434 4.361-2.53 5.06-.419.139-.846.205-1.265.205zm-6.035-91.796 17.206 22.167c4.33 5.578 5.055 13.247 1.849 19.538l-.133.26 11.822-13.792-20.139-35.244z" fill="#4c241d"/></g><path d="m148.509 266c-.682 0-1.372-.174-2.004-.541-1.911-1.109-2.561-3.557-1.452-5.467l8.596-14.809c1.109-1.91 3.557-2.561 5.467-1.452 1.911 1.109 2.561 3.557 1.452 5.467l-8.596 14.809c-.742 1.279-2.083 1.993-3.463 1.993z" fill="#4c241d"/><g><path d="m101.109 214-3.302-27.516c-.298-2.483 1.364-4.777 3.816-5.268l45.017-9.003-28.505-14.363-29.17 15.785c-3.621 1.959-5.034 6.438-3.193 10.12l16.442 32.884 19.745-9.872" fill="#e7d1c4"/><path d="m102.218 220.639c-1.467 0-2.88-.811-3.581-2.212l-16.442-32.883c-2.823-5.647-.686-12.423 4.867-15.428l29.169-15.785c1.151-.623 2.535-.643 3.704-.054l28.505 14.363c1.524.768 2.393 2.418 2.164 4.109s-1.506 3.051-3.179 3.385l-45.017 9.003c-.402.081-.679.462-.63.869l2.986 24.884 15.407-7.703c1.974-.988 4.378-.187 5.366 1.789s.187 4.379-1.789 5.367l-19.745 9.872c-.573.287-1.184.424-1.785.424zm15.984-58.278-27.332 14.791c-1.732.938-2.399 3.052-1.519 4.813l5.111 10.223-.627-5.229c-.543-4.527 2.534-8.773 7.004-9.667l33.643-6.729z" fill="#4c241d"/></g><g><path d="m210.811 108.042 16.136-9.221c8.532-4.875 19.228.832 19.929 10.634l2.398 33.566c.671 9.389 4.031 18.387 9.679 25.918l6.157 8.209-20.894-16.115c-7.004-5.402-11.106-13.747-11.106-22.591v-19.989c0-6.686-5.743-11.927-12.401-11.317z" fill="#e7d1c4"/><path d="m265.108 181.148c-.858 0-1.718-.274-2.442-.833l-20.894-16.115c-7.929-6.116-12.663-15.745-12.663-25.759v-19.989c0-2.096-.853-4.027-2.4-5.44-1.548-1.412-3.549-2.086-5.636-1.894l-9.896.906c-1.875.168-3.614-.986-4.18-2.781s.196-3.742 1.831-4.675l16.136-9.22c5.208-2.976 11.477-3.067 16.769-.243s8.707 8.082 9.134 14.064l2.397 33.566c.617 8.641 3.691 16.872 8.889 23.803l6.158 8.209c1.2 1.601 1.033 3.842-.391 5.247-.775.765-1.792 1.154-2.812 1.154zm-38.79-77.36c2.127.664 4.108 1.787 5.783 3.316 3.183 2.904 5.008 7.041 5.008 11.349v19.989c0 7.551 3.57 14.813 9.549 19.424l2.517 1.941c-2.163-5.224-3.484-10.787-3.892-16.501l-2.397-33.565c-.234-3.271-2.027-6.033-4.92-7.577-2.894-1.543-6.186-1.497-9.034.131z" fill="#4c241d"/></g><path d="m72.023 61.098c-.202 0-.406-.015-.612-.047-2.163-.332-3.653-2.338-3.355-4.498.054-.498.306-4.455-4.736-6.976-1.976-.988-2.776-3.391-1.789-5.367.988-1.976 3.39-2.776 5.367-1.789 10.487 5.243 9.137 14.875 9.074 15.283-.304 1.978-2.008 3.394-3.949 3.394z" fill="#4c241d"/><g><path d="m216.97 247.59 12.265-45.771c.85-3.173.509-6.549-.961-9.487l-7.592-15.183 4.936-24.681c2.997-29.97-12.202-41.743-24.607-46.369-6.832-2.548-14.252-3.083-21.471-2.052l-15.324 2.997c-8.696 1.701-17.45-2.174-22.3-9.589-15.609-23.864-35.59-35.76-49.82-40.32 1.656-17.762-14.987-19.135-14.987-19.135l3.549 17.744c-4.319.516-8.492 2.177-12.019 4.919l-31.127 24.21c-2.561 1.991-3.359 5.513-1.909 8.415 1.427 2.853 4.643 4.332 7.737 3.559l14.449-3.612 16.271-.001c5.797 0 11.257 2.846 14.452 7.683 7.494 11.348 13.703 26.871 13.703 26.871 9.873 34.552 42.894 54.212 42.894 54.212l12 64 7.085-70.849c.52-5.195 4.891-9.151 10.112-9.151h16.761c4.38 6.57 9.732 12.42 14.331 16.896 6.607 6.429 10.483 15.13 10.686 24.347z" fill="#bf7e68"/><path d="m216.973 251.59c-.159 0-.32-.01-.481-.029-1.976-.238-3.477-1.893-3.521-3.883l-.887-40.348c-.179-8.136-3.544-15.796-9.476-21.568-5.384-5.238-9.967-10.532-13.649-15.762h-14.653c-3.179 0-5.815 2.386-6.132 5.549l-7.085 70.849c-.198 1.98-1.821 3.513-3.809 3.599-1.992.081-3.737-1.304-4.103-3.259l-11.677-62.284c-6.889-4.484-33.951-23.773-43.071-55.36-.711-1.744-6.503-15.75-13.254-25.973-2.434-3.687-6.589-5.887-11.114-5.887h-15.778l-13.971 3.493c-4.95 1.237-10.002-1.085-12.285-5.65-2.295-4.591-1.021-10.21 3.031-13.361l31.127-24.209c2.905-2.259 6.225-3.919 9.767-4.9l-2.764-13.821c-.246-1.232.1-2.508.936-3.446s2.074-1.429 3.315-1.325c.356.029 8.798.796 14.273 7.326 2.924 3.487 4.432 7.846 4.5 12.989 10.717 3.978 31.883 14.687 49.054 40.938 4.019 6.144 11.154 9.227 18.185 7.853l15.324-2.998c.067-.013.135-.024.203-.034 8.212-1.173 16.315-.39 23.434 2.264 27.043 10.084 28.643 35.978 27.189 50.515-.013.13-.032.259-.058.387l-4.667 23.335 6.978 13.956c1.909 3.817 2.351 8.189 1.247 12.312l-12.265 45.771c-.475 1.762-2.074 2.961-3.863 2.961zm-42.667-89.591h16.761c1.337 0 2.586.668 3.328 1.781 3.559 5.339 8.2 10.805 13.792 16.248 7.445 7.245 11.67 16.878 11.895 27.126l.271 12.355 5.018-18.726c.598-2.231.358-4.597-.674-6.663l-7.592-15.184c-.398-.796-.519-1.701-.345-2.574l4.897-24.486c1.454-14.932-1.219-34.267-22.042-42.031-5.842-2.179-12.551-2.82-19.408-1.854l-15.222 2.978c-10.238 1.999-20.606-2.443-26.416-11.325-17.49-26.74-39.18-35.973-47.693-38.701-1.787-.573-2.936-2.311-2.762-4.18.535-5.746-1.055-9.791-4.861-12.365-.296-.201-.596-.385-.896-.554l2.223 11.113c.219 1.094-.029 2.229-.684 3.132-.654.903-1.657 1.492-2.764 1.624-3.677.439-7.148 1.859-10.037 4.105l-31.127 24.212c-1.052.818-1.382 2.277-.787 3.468.593 1.185 1.905 1.791 3.189 1.467l14.449-3.612c.317-.08.643-.12.97-.12h16.271c7.22 0 13.87 3.543 17.79 9.479 7.631 11.555 13.819 26.94 14.079 27.589.051.126.095.255.132.387 9.302 32.557 40.78 51.687 41.097 51.876.984.588 1.671 1.571 1.882 2.698l6.862 36.6 4.311-43.109c.728-7.271 6.786-12.754 14.093-12.754z" fill="#4c241d"/></g><path d="m213.111 266c-.343 0-.691-.044-1.038-.137-2.134-.572-3.4-2.765-2.829-4.899l3.861-14.41c.572-2.134 2.767-3.4 4.899-2.829 2.134.572 3.4 2.765 2.829 4.899l-3.861 14.41c-.478 1.788-2.095 2.966-3.861 2.966z" fill="#4c241d"/></g></svg>