<svg id="horse_x5F_pose10" enable-background="new 0 0 300 300" height="512" viewBox="0 0 300 300" width="512" xmlns="http://www.w3.org/2000/svg"><g><circle cx="175.099" cy="128" fill="#e5efef" r="86"/><g><path d="m208.649 136.7h25.304c5.075 0 9.592.609 13.506 1.516 10.42 2.415 18.23 11.085 20.11 21.614 1.587 8.887-1.344 17.965-7.792 24.283-7.866 7.708-17.472 16.34-17.472 16.34-1.937 1.614-3.056 4.005-3.056 6.525 0 4.132 2.956 7.676 7.028 8.379 6.873 1.187 17.208.371 23.572-12.358 0 0-10.2 30.6-40.8 20.4 0 0-30.701-8.772-10.759-34.45 2.685-3.458 6.009-6.367 9.573-8.91 8.341-5.949 25.229-21.119 1.186-33.141z" fill="#e7d1c4"/><path d="m240.961 229.488c-3.932 0-8.294-.673-13.106-2.27-1.429-.425-15.59-4.905-19.381-16.496-2.391-7.309-.15-15.459 6.657-24.226 2.681-3.452 6.086-6.628 10.409-9.712 7.786-5.553 12.228-11.514 11.882-15.947-.354-4.541-5.722-8.14-10.162-10.36l-20.399-10.2c-1.659-.83-2.53-2.691-2.104-4.497s2.037-3.081 3.893-3.081h25.304c4.924 0 9.771.545 14.409 1.619 11.858 2.748 20.943 12.486 23.145 24.808 1.817 10.175-1.521 20.583-8.93 27.843-7.838 7.68-17.501 16.371-17.598 16.458-.037.033-.075.066-.113.098-1.027.857-1.617 2.115-1.617 3.453 0 2.2 1.56 4.067 3.708 4.438 8.678 1.498 15.178-1.935 19.313-10.205.938-1.877 3.168-2.711 5.108-1.906 1.939.803 2.929 2.969 2.265 4.96-.116.349-2.929 8.626-9.892 15.589-4.808 4.809-12.259 9.633-22.791 9.634zm-15.367-88.788 5.244 2.622c9.143 4.571 14.041 10.255 14.56 16.892.748 9.578-7.859 17.839-15.212 23.083-3.682 2.626-6.539 5.278-8.736 8.106-5.079 6.54-6.887 12.202-5.372 16.832 2.562 7.832 13.956 11.286 14.07 11.318.056.016.111.033.166.051 8.027 2.677 14.449 2.164 19.509.127-1.553-.048-2.981-.217-4.227-.432-5.995-1.036-10.347-6.217-10.347-12.321 0-3.691 1.614-7.165 4.432-9.544.75-.675 9.871-8.9 17.297-16.177 5.519-5.407 8.006-13.154 6.654-20.723-1.638-9.166-8.34-16.396-17.076-18.42-4.046-.938-8.286-1.413-12.603-1.413h-8.359zm16.712 59.753h.01z" fill="#4c241d"/></g><g><path d="m136.212 216.946 41.837-13.946-25.5-5.1-28.38 14.19c-1.455.727-2.695 1.822-3.597 3.175l-8.823 13.235 7.591 1.44 9.64-8.76c2.09-1.899 4.553-3.341 7.232-4.234z" fill="#e7d1c4"/><path d="m119.34 233.94c-.248 0-.497-.023-.745-.07l-7.591-1.44c-1.318-.25-2.423-1.144-2.942-2.381s-.385-2.651.359-3.768l8.823-13.235c1.287-1.93 3.062-3.498 5.136-4.534l28.38-14.19c.796-.397 1.7-.519 2.573-.345l25.5 5.1c1.778.356 3.096 1.864 3.208 3.674s-1.007 3.47-2.728 4.043l-41.838 13.946c-2.164.721-4.118 1.865-5.806 3.399l-9.64 8.76c-.741.676-1.702 1.041-2.689 1.041zm33.771-31.849-27.152 13.576c-.83.415-1.542 1.043-2.058 1.817l-4.916 7.374 7.305-6.639c2.518-2.287 5.43-3.992 8.657-5.068l27.548-9.183z" fill="#4c241d"/></g><g><path d="m70.949 162.2-35.447 8.862c-3.146.786-5.353 3.613-5.353 6.855 0 2.838 1.698 5.401 4.312 6.508l30.142 12.756-15.504-19.181 37.15-.5z" fill="#e7d1c4"/><path d="m64.603 201.181c-.523 0-1.053-.103-1.558-.317l-30.142-12.756c-4.103-1.735-6.754-5.736-6.754-10.191 0-5.088 3.447-9.503 8.383-10.736l35.447-8.861c1.357-.341 2.805.058 3.798 1.052l15.3 15.3c1.138 1.137 1.483 2.845.878 4.334s-2.044 2.472-3.652 2.494l-28.917.389 10.328 12.777c1.154 1.427 1.188 3.456.084 4.921-.773 1.028-1.968 1.594-3.195 1.594zm5.12-34.551-33.251 8.312c-1.367.342-2.322 1.565-2.322 2.975 0 1.234.734 2.343 1.871 2.823l15.429 6.529-5.461-6.755c-.963-1.191-1.161-2.828-.511-4.214.65-1.387 2.036-2.28 3.567-2.3l27.675-.373z" fill="#4c241d"/></g><path d="m96.45 74.4c-2.209 0-4-1.791-4-4 0-10.418 8.492-14.2 14.2-14.2 2.209 0 4 1.791 4 4 0 2.199-1.774 3.983-3.97 4-5.624.109-6.23 4.372-6.23 6.2 0 2.209-1.791 4-4 4z" fill="#4c241d"/><g><path d="m198.45 192.8c45.9-20.4 15.3-61.2 15.3-61.2-19.171-15.976-41.345-12.934-55.235-8.434-10.196 3.304-21.098 3.746-31.404.802l-17.911-5.118-6.539-41.416c-.697-4.414-3.482-8.22-7.479-10.218l-3.833-1.916v-15.3c-10.488 3.496-11.389 9.387-10.919 12.748-2.159.346-4.248 1.177-6.063 2.539-9.653 7.239-16.413 17.739-18.922 29.541-13.263 62.372 20.605 87.772 20.605 87.772l-23.985 20.558c-4.344 3.723-1.711 10.842 4.011 10.842h45.024l-30.15-5.9 26.15-14.1h44c5.1 20.4 31.85 19.2 31.85 19.2l-25.695 12.848c-3.225 1.613-6.029 3.956-8.188 6.844l-11.818 15.809 10.001-10.001 57.699-17.754c4.058-1.249 6.059-5.939 3.969-9.635-8.265-14.613-.468-18.511-.468-18.511z" fill="#bf7e68"/><path d="m127.247 252.701c-.931 0-1.863-.323-2.617-.976-1.586-1.374-1.842-3.739-.586-5.419l11.818-15.809c2.521-3.371 5.841-6.146 9.604-8.027l13.883-6.941c-.524-.14-1.054-.291-1.587-.455-9.823-3.018-16.54-8.887-19.604-17.074h-40.05l-15.43 8.32 19.188 3.754c2.021.396 3.411 2.262 3.213 4.312-.199 2.05-1.922 3.614-3.981 3.614h-45.022c-4.299 0-8.04-2.605-9.531-6.637s-.347-8.445 2.917-11.243l20.536-17.602c-8.829-8.894-29.588-36.215-18.465-88.523 2.705-12.723 9.962-24.055 20.434-31.909 1.354-1.016 2.871-1.831 4.487-2.42.552-4.23 3.352-10.035 13.631-13.461 1.219-.407 2.562-.202 3.604.55 1.043.752 1.661 1.959 1.661 3.245v12.828l1.621.811c5.141 2.571 8.745 7.495 9.642 13.172l6.141 38.895 15.457 4.417c9.29 2.654 19.344 2.391 29.071-.761 15.777-5.113 38.824-7.672 59.029 9.167.238.199.453.424.64.673.608.811 14.835 20.087 9.667 39.949-3.011 11.571-11.858 20.721-26.298 27.197-1.334.978-2.528 4.847 2.08 12.996 1.571 2.779 1.789 6.089.598 9.083-1.22 3.064-3.725 5.376-6.872 6.344l-56.749 17.461-9.3 9.299c-.78.777-1.803 1.17-2.83 1.17zm45.697-43.5c1.816 0 3.418 1.229 3.875 3.001.471 1.826-.394 3.733-2.08 4.576l-25.695 12.848c-1.303.651-2.53 1.455-3.653 2.385l48.382-14.887c.82-.252 1.473-.856 1.791-1.656.172-.43.382-1.285-.127-2.187-3.937-6.96-5.191-12.919-3.729-17.711 1.327-4.347 4.359-6.049 4.953-6.346.055-.027.109-.053.164-.078 12.23-5.436 19.646-12.828 22.04-21.972 3.877-14.808-6.303-30.293-8.064-32.821-17.315-14.147-37.295-11.838-51.053-7.381-11.244 3.644-22.91 3.935-33.735.843l-17.911-5.118c-1.497-.428-2.609-1.685-2.853-3.222l-6.539-41.416c-.494-3.131-2.482-5.847-5.317-7.265l-3.832-1.916c-1.354-.678-2.211-2.062-2.211-3.578v-8.952c-1.967 1.433-3.308 3.341-2.957 5.847.301 2.157-1.179 4.159-3.329 4.503-1.612.258-3.058.86-4.296 1.79-8.925 6.692-15.107 16.342-17.411 27.172-12.585 59.188 18.774 83.502 19.093 83.74.971.728 1.558 1.857 1.598 3.07.039 1.213-.474 2.378-1.395 3.167l-23.984 20.558c-1.032.885-.778 1.968-.621 2.393.157.424.669 1.412 2.028 1.412h11.354c-.214-.397-.363-.835-.435-1.3-.253-1.67.57-3.319 2.057-4.121l26.149-14.1c.583-.314 1.235-.479 1.898-.479h44c1.835 0 3.436 1.249 3.881 3.03 1.737 6.95 6.763 11.773 14.938 14.336 6.595 2.067 12.804 1.836 12.86 1.838.055-.002.11-.003.166-.003z" fill="#4c241d"/></g><g fill="#4c241d"><path d="m121.95 258c-1.023 0-2.048-.391-2.828-1.171-1.562-1.562-1.562-4.095 0-5.657l5.299-5.299c1.561-1.562 4.096-1.562 5.656 0 1.562 1.562 1.562 4.095 0 5.657l-5.299 5.299c-.78.78-1.805 1.171-2.828 1.171z"/><path d="m135.626 237.028c-.248 0-.498-.023-.75-.07l-16.281-3.088c-2.171-.412-3.597-2.505-3.185-4.675.411-2.172 2.514-3.593 4.675-3.185l16.281 3.088c2.171.412 3.597 2.505 3.185 4.675-.363 1.919-2.042 3.255-3.925 3.255z"/><path d="m144.561 206.775c-1.133 0-2.258-.479-3.05-1.409-5.599-6.586-6.601-15.777-2.552-23.415l6.056-11.424c1.034-1.951 3.457-2.695 5.407-1.661 1.952 1.035 2.695 3.456 1.661 5.408l-6.056 11.424c-2.505 4.726-1.885 10.412 1.579 14.486 1.431 1.683 1.227 4.208-.457 5.638-.751.64-1.672.953-2.588.953z"/><path d="m100.217 136.224c-1.177 0-2.359-.151-3.519-.459-3.803-1.009-6.993-3.607-8.753-7.125l-4.983-9.969-14.841-14.841c-1.562-1.562-1.562-4.095 0-5.657 1.561-1.562 4.094-1.562 5.656 0l15.3 15.3c.305.304.558.655.75 1.04l5.274 10.549c.744 1.489 2.04 2.544 3.649 2.971 1.608.428 3.258.155 4.643-.77 2.127-1.418 3.059-4.105 2.267-6.535-.685-2.1.463-4.358 2.562-5.043 2.1-.683 4.358.463 5.043 2.563 1.9 5.827-.335 12.271-5.435 15.67-2.274 1.518-4.928 2.306-7.613 2.306z"/></g></g></svg>