<svg id="horse_x5F_pose7" enable-background="new 0 0 300 300" height="512" viewBox="0 0 300 300" width="512" xmlns="http://www.w3.org/2000/svg"><g><circle cx="145.334" cy="118.001" fill="#e5efef" r="86"/><path d="m224.713 51.392c-2.209 0-4-1.791-4-4 0-5.782 4.625-15.326 5.552-17.18.987-1.976 3.387-2.779 5.365-1.789 1.977.987 2.777 3.389 1.791 5.365-1.955 3.916-4.708 10.726-4.708 13.604 0 2.209-1.791 4-4 4z" fill="#4c241d"/><g><path d="m157.261 247.555-30.939-31.671c-2.622-2.684-3.664-6.535-2.754-10.175l3.666-14.665-5.13-25.652 15.391-20.522 10.261 10.261v29.723c0 4.071-.948 8.085-2.768 11.726l-7.493 14.985 25.652 46.174" fill="#e7d1c4"/><path d="m163.151 261.741c-1.406 0-2.77-.743-3.501-2.059l-5.105-9.19c-.049-.046-.098-.093-.146-.142l-30.938-31.671c-3.564-3.65-5.011-8.991-3.773-13.939l3.448-13.793-4.953-24.77c-.224-1.116.039-2.274.722-3.184l15.391-20.522c.696-.928 1.76-1.508 2.917-1.59 1.155-.085 2.293.342 3.111 1.161l10.261 10.261c.75.75 1.172 1.768 1.172 2.829v29.723c0 4.667-1.103 9.341-3.189 13.515l-6.55 13.099 24.628 44.33c1.072 1.931.377 4.366-1.555 5.439-.616.34-1.282.503-1.94.503zm-36.773-95.379 4.778 23.898c.116.581.103 1.18-.041 1.754l-3.666 14.666c-.569 2.275.096 4.731 1.734 6.409l10.623 10.875-5.809-10.456c-.641-1.154-.671-2.55-.081-3.731l7.493-14.985c1.535-3.069 2.346-6.505 2.346-9.938v-28.066l-5.828-5.828z" fill="#4c241d"/></g><g><path d="m245.234 162.523-17.581-18.08c-2.784-2.863-6.515-4.615-10.496-4.929l-33.489-2.643 11.735-21.013 32.339 12.127c5.472 2.052 9.638 6.588 11.219 12.214l6.273 22.324-5.13 15.391" fill="#e7d1c4"/><path d="m240.106 181.915c-.42 0-.846-.066-1.266-.206-2.096-.699-3.229-2.964-2.53-5.06l4.36-13.083-15.885-16.335c-2.107-2.167-4.929-3.493-7.941-3.73l-33.489-2.643c-1.358-.107-2.569-.899-3.212-2.101-.644-1.202-.631-2.648.034-3.837l11.735-21.013c.965-1.728 3.049-2.489 4.896-1.795l32.339 12.127c6.64 2.49 11.748 8.052 13.665 14.878l6.251 22.246c.247.818.227 1.699-.062 2.506l-5.103 15.31c-.557 1.676-2.119 2.736-3.792 2.736zm-49.903-48.541 27.27 2.152c4.951.391 9.585 2.567 13.048 6.128l6.604 6.79-2.013-7.164c-1.231-4.382-4.511-7.953-8.772-9.551l-29.12-10.919z" fill="#4c241d"/></g><path d="m195.334 196.001h-20c-2.209 0-4-1.791-4-4s1.791-4 4-4h20c2.209 0 4 1.791 4 4s-1.791 4-4 4z" fill="#4c241d"/><path d="m106.713 272.001c-1.023 0-2.047-.391-2.828-1.171l-9.729-9.729c-1.562-1.562-1.562-4.095 0-5.657 1.561-1.562 4.094-1.562 5.656 0l9.729 9.729c1.562 1.562 1.562 4.095 0 5.657-.78.78-1.805 1.171-2.828 1.171z" fill="#4c241d"/><g><path d="m95.334 136.001-25.075-1.24c-7.225 0-13.975 3.656-17.828 9.767-6.876 10.903-12.742 29.847 7.433 51.21 3.292 3.486 3.624 8.839.964 12.829l-5.42 8.13 16.959-13.567c4.813-3.851 6.078-10.614 3.005-15.957-6.521-11.341-15.043-30.191-4.573-37.171z" fill="#e7d1c4"/><path d="m55.409 220.697c-.973 0-1.941-.353-2.704-1.052-1.454-1.333-1.719-3.526-.625-5.167l5.42-8.13c1.65-2.475 1.422-5.782-.544-7.863-22.579-23.91-14.646-45.405-7.908-56.091 4.594-7.284 12.523-11.633 21.212-11.633.065 0 .132.001.197.005l25.074 1.24c1.775.088 3.28 1.336 3.693 3.065s-.364 3.523-1.908 4.404l-24.41 13.929c-1.249.843-4.474 3.323-2.296 12.636 1.242 5.316 4.089 11.934 8.23 19.138 4.083 7.103 2.411 15.966-3.975 21.075l-16.958 13.567c-.732.586-1.616.877-2.498.877zm14.757-81.936c-5.889.031-11.248 2.979-14.351 7.9-12.178 19.31-2.938 35.853 6.957 46.331 2.496 2.643 3.786 6.122 3.81 9.643l3.286-2.629c3.282-2.625 4.139-7.185 2.037-10.84-15.358-26.713-10.285-37.852-3.324-42.493.077-.051.156-.1.236-.146l12.631-7.208z" fill="#4c241d"/></g><g><path d="m253.255 78.824-8.02-16.041-1.188-4.753c-1.145-4.581-3.757-8.404-7.168-11.221l3.226-9.678c-4.588 2.294-7.116 4.584-8.518 6.419-3.39-1.425-7.169-2.021-11.047-1.504-.492.065-.99.137-1.492.216-12.538 1.959-23.818 8.744-32.076 18.379l-23.823 27.794s-8.658 0-17.315 10.822c-8.034 10.042-18.695 17.655-31.103 21.039l-13.168 3.591c-18.123 4.943-28.427 24.258-22.082 41.938 2.248 6.263 5.969 13.041 11.842 20.088v20.522l-5.434 5.434c-2.939 2.94-3.89 7.326-2.43 11.219l12.994 34.652v-35.913l20.522-25.652 20.522-35.913s15.391 10.261 35.913-10.261c0 0 15.391 15.391 35.913 15.391l-13.987 26.609 24.551-22.236c2.854-2.585 3.637-6.755 1.915-10.199l-.19-.381c-1.199-2.398-3.459-4.052-6.085-4.595-4.359-.902-11.974-3.307-21.594-9.72 0 0 15.391-10.261 10.261-35.913v-10.137c0-3.364 1.336-6.59 3.715-8.969l16.807-16.807 15.606 15.606c2.715 2.715 7.116 2.715 9.831 0l1.803-1.802c2.112-2.116 2.637-5.348 1.299-8.024z" fill="#bf7e68"/><path d="m96.45 261.741c-1.642 0-3.149-1.014-3.743-2.596l-12.995-34.652c-2.005-5.348-.69-11.413 3.347-15.451l4.263-4.262v-17.436c-5.231-6.497-9.133-13.274-11.606-20.166-3.417-9.523-2.712-19.737 1.986-28.761 4.691-9.012 13.005-15.714 22.808-18.388l13.168-3.591c11.12-3.033 21.159-9.837 29.031-19.679 7.297-9.12 14.882-11.492 18.415-12.107l22.811-26.613c9.149-10.675 21.4-17.682 34.496-19.729.531-.083 1.06-.159 1.583-.229 3.469-.463 7.017-.18 10.402.814 2.028-1.938 4.673-3.728 7.9-5.341 1.448-.724 3.188-.504 4.41.556s1.686 2.752 1.174 4.287l-2.409 7.225c3.152 3.215 5.357 7.123 6.437 11.44l1.082 4.327 7.824 15.647c2.111 4.223 1.286 9.303-2.053 12.642l-1.803 1.803c-2.067 2.068-4.817 3.208-7.743 3.208-2.925 0-5.675-1.139-7.743-3.208l-12.778-12.778-13.979 13.979c-1.64 1.64-2.543 3.821-2.543 6.141v9.748c3.651 18.866-2.939 30.204-7.732 35.663 6.861 3.981 12.303 5.703 15.876 6.442 3.893.806 7.118 3.256 8.853 6.723l.19.381c2.514 5.03 1.359 11.179-2.809 14.953l-24.55 22.236c-1.438 1.302-3.602 1.385-5.136.197-1.533-1.188-1.993-3.306-1.091-5.023l11.141-21.192c-13.745-1.904-24.505-9.458-29.436-13.521-15.419 13.842-28.21 12.145-34.341 9.989l-18.711 32.743c-.103.18-.22.353-.35.514l-19.645 24.557v34.51c0 1.934-1.384 3.591-3.286 3.936-.239.041-.478.062-.715.062zm126.833-215.876c-.741 0-1.481.049-2.216.146-.465.062-.931.129-1.401.203-11.216 1.753-21.748 7.801-29.658 17.031l-23.823 27.794c-.76.887-1.869 1.397-3.037 1.397-.221.009-7.003.335-14.192 9.321-8.937 11.172-20.408 18.918-33.173 22.399l-13.168 3.591c-7.658 2.089-14.152 7.324-17.817 14.364-3.656 7.023-4.207 14.965-1.553 22.364 2.301 6.409 6.052 12.76 11.15 18.878.599.719.927 1.625.927 2.561v20.522c0 1.061-.422 2.078-1.172 2.829l-5.434 5.434c-1.825 1.826-2.42 4.568-1.514 6.986l5.25 13.998v-13.855c0-.908.31-1.79.877-2.499l20.326-25.409 20.367-35.642c.55-.963 1.475-1.654 2.554-1.909s2.215-.05 3.138.565c.491.31 13.127 7.978 30.866-9.761.75-.75 1.768-1.171 2.828-1.171s2.078.421 2.828 1.171c.139.138 14.535 14.22 33.085 14.22 1.4 0 2.699.733 3.424 1.932s.769 2.689.117 3.93l-3.487 6.633 7.824-7.087c1.519-1.375 1.938-3.614 1.022-5.445l-.19-.38c-.631-1.262-1.84-2.162-3.317-2.467-4.987-1.032-13.026-3.658-23.003-10.309-1.113-.742-1.781-1.991-1.781-3.328s.668-2.586 1.781-3.328c.006-.005 3.304-2.319 5.984-7.332 3.606-6.744 4.472-14.976 2.574-24.469-.052-.258-.078-.521-.078-.784v-10.139c0-4.457 1.735-8.646 4.887-11.798l16.807-16.807c1.561-1.562 4.096-1.562 5.656 0l15.606 15.606c1.115 1.115 3.06 1.116 4.173 0l1.804-1.803c.899-.9 1.122-2.269.553-3.406l-8.021-16.041c-.13-.261-.231-.536-.303-.819l-1.188-4.753c-.883-3.536-2.9-6.685-5.834-9.106-.799-.66-1.292-1.585-1.42-2.57-.913.32-1.937.308-2.875-.086-2.162-.908-4.462-1.372-6.753-1.372z" fill="#4c241d"/></g></g></svg>