<svg id="horse_x5F_pose3" enable-background="new 0 0 300 300" height="512" viewBox="0 0 300 300" width="512" xmlns="http://www.w3.org/2000/svg"><g><g><circle cx="151" cy="129.937" fill="#e5efef" r="86"/></g><g><path d="m233.552 107.937h14.148c7.345 0 13.299 5.954 13.299 13.299v45.095c0 7.405 1.961 14.678 5.683 21.08l2.317 3.986-9.834-9.397c-9.047-8.646-14.165-20.615-14.165-33.129v-25.458c0-6.103-3.501-11.666-9.005-14.305z" fill="#e7d1c4"/><path d="m269.001 195.396c-1 0-1.995-.373-2.764-1.108l-9.834-9.397c-9.789-9.353-15.402-22.482-15.402-36.02v-25.458c0-4.537-2.644-8.737-6.734-10.698l-2.443-1.171c-1.684-.808-2.585-2.673-2.171-4.494s2.033-3.113 3.9-3.113h14.149c9.539 0 17.299 7.76 17.299 17.299v45.096c0 6.691 1.778 13.285 5.141 19.069l2.317 3.985c1.001 1.722.583 3.919-.982 5.152-.731.575-1.605.858-2.476.858zm-23.674-83.459c2.338 3.304 3.673 7.305 3.673 11.477v25.458c0 9.253 3.124 18.277 8.719 25.549-.477-2.661-.719-5.368-.719-8.089v-45.096c0-5.127-4.171-9.299-9.299-9.299z" fill="#4c241d"/></g><g><path d="m175.228 230.044 23.772-38.648 14-42-32.667-4.667 7.891 35.51c.944 4.247.716 8.67-.66 12.797l-16.564 49.694" fill="#e7d1c4"/><path d="m171 246.731c-.419 0-.846-.066-1.265-.206-2.096-.699-3.229-2.964-2.53-5.06l4.202-12.606c.016-.051.033-.102.051-.153l12.311-36.934c1.146-3.438 1.337-7.126.55-10.665l-7.891-35.51c-.285-1.282.078-2.622.97-3.585.893-.964 2.203-1.429 3.5-1.242l32.667 4.667c1.174.168 2.213.848 2.837 1.857s.768 2.243.393 3.368l-14 42c-.097.291-.227.569-.388.831l-23.53 38.255-4.082 12.247c-.559 1.676-2.12 2.736-3.795 2.736zm14.492-97.223 6.637 29.865c1.101 4.954.834 10.116-.771 14.93l-1.37 4.11 5.362-8.719 12.338-37.015z" fill="#4c241d"/></g><g><path d="m138.646 239.971-14.313-11.242-12.409-33.091c-1.038-2.768-1.249-5.779-.608-8.665l8.35-37.577 18.667 14-18.667 32.667 4.667 32.667" fill="#e7d1c4"/><path d="m138.643 243.971c-.864 0-1.735-.279-2.468-.854l-14.295-11.228c-.595-.462-1.06-1.091-1.32-1.829l-12.381-33.018c-1.313-3.502-1.579-7.284-.768-10.937l8.351-37.578c.295-1.326 1.243-2.413 2.517-2.884 1.276-.472 2.701-.263 3.788.551l18.667 14c1.614 1.21 2.074 3.433 1.073 5.185l-17.986 31.476 4.246 29.719 13.051 10.25c1.737 1.364 2.04 3.879.675 5.616-.79 1.007-1.964 1.531-3.15 1.531zm-16.417-87.655-7.005 31.525c-.474 2.135-.319 4.346.448 6.393l.207.552c.083-.244.188-.48.317-.707l16.915-29.601z" fill="#4c241d"/></g><path d="m40.661 164.923c-1.485 0-2.912-.831-3.603-2.257-2.009-4.147-3.34-5.331-5.967-5.27-2.206.029-4.04-1.699-4.09-3.908-.05-2.208 1.7-4.04 3.908-4.09 8.511-.182 11.78 6.543 13.349 9.781.963 1.988.132 4.38-1.856 5.344-.562.271-1.156.4-1.741.4z" fill="#4c241d"/><g><path d="m147.667 233.396-14-60.667s-18.667-14-23.333-23.333l-37.333 14v6.147c0 4.689-3.001 8.853-7.449 10.336l-6.552 2.184-3.824 19.037c-.843 4.197-5.019 7.105-9.111 5.847-3.093-.951-5.066-3.754-5.066-6.818v-24.192l-2.355-5.538c-1.892-4.448-1.258-9.558 1.7-13.381 1.352-1.747 3.071-3.864 5.069-6.218l-1.041-.485-8.039-6.252s6.105-6.867 15.998-1.038c10.679-11.514 26.171-26.074 44.781-38.017 9.485-6.087 20.631-9.072 31.901-9.072h67.986s16.368-2.681 30.197 4.757c14.099 7.583 20.07 24.83 14.636 39.889-3.756 10.408-8.508 26.129-5.499 32.148 3.005 6.01 7.944 13.954 11.081 18.85 1.891 2.952 2.701 6.448 2.313 9.933l-4.061 36.551-7.543-33.942c-1.102-4.961-4.022-9.294-8.188-12.204-9.996-6.981-28.87-22.323-35.603-42.521 0 0-22 15.207-45.333 10.54v72l-15.333 15.46" fill="#bf7e68"/><path d="m133.666 251.396c-1.019 0-2.037-.386-2.817-1.16-1.568-1.556-1.579-4.088-.023-5.657l12.425-12.527-13.158-57.017c-3.989-3.077-15.757-12.496-21.46-20.73l-31.633 11.863v3.375c0 6.421-4.093 12.099-10.185 14.13l-4.351 1.451-3.367 16.763c-.656 3.265-2.66 6.106-5.498 7.797-2.687 1.6-5.779 1.986-8.71 1.085-4.719-1.45-7.89-5.727-7.89-10.641v-23.377l-2.036-4.787c-2.459-5.784-1.61-12.449 2.217-17.395.709-.916 1.5-1.91 2.349-2.953l-5.653-4.396c-.874-.679-1.426-1.69-1.528-2.792-.101-1.102.259-2.196.994-3.023 2.585-2.908 9.41-6.877 18.105-3.286 9.944-10.475 25.031-24.624 43.503-36.478 9.894-6.349 21.672-9.705 34.059-9.705h.003 67.687c2.612-.372 18.505-2.233 32.39 5.233 15.592 8.386 22.688 27.633 16.504 44.77-6.239 17.288-7.027 26.316-5.685 29.001 2.997 5.993 8.098 14.151 10.872 18.481 2.371 3.699 3.408 8.15 2.921 12.532l-4.061 36.551c-.216 1.944-1.807 3.447-3.76 3.552-1.945.113-3.696-1.216-4.121-3.126l-7.542-33.942c-.882-3.97-3.217-7.448-6.574-9.792-10.028-7.004-27.245-21.101-35.336-39.896-7.186 3.997-22.467 10.963-39.31 9.273v67.363c0 1.055-.417 2.068-1.16 2.817l-.827.834c-.294.448-.677.838-1.132 1.141l-13.375 13.485c-.778.788-1.808 1.183-2.837 1.183zm60.667-106c.425 0 .853.068 1.266.206 1.194.398 2.131 1.335 2.529 2.529 6.31 18.929 24.072 33.504 34.099 40.507 5.003 3.494 8.484 8.685 9.802 14.616l2.32 10.442 1.403-12.626c.285-2.566-.32-5.171-1.706-7.333-3.493-5.452-8.287-13.212-11.291-19.219-1.066-2.133-4.311-8.622 5.314-35.294 4.848-13.436-.641-28.486-12.768-35.008-12.486-6.716-27.504-4.357-27.655-4.332-.213.035-.43.053-.646.053h-67.986s-.002 0-.003 0c-10.853 0-21.135 2.917-29.738 8.438-19.085 12.247-34.466 27.082-44.009 37.37-1.278 1.378-3.343 1.681-4.963.726-2.681-1.58-4.9-1.936-6.624-1.764l2.793 2.172.631.294c1.132.527 1.952 1.551 2.219 2.771s-.05 2.493-.857 3.444c-1.864 2.196-3.578 4.298-4.955 6.078-2.057 2.657-2.51 6.247-1.183 9.368l2.355 5.537c.211.496.319 1.028.319 1.566v24.192c0 1.379.9 2.582 2.241 2.994.951.294 1.757-.008 2.266-.311.886-.528 1.54-1.462 1.748-2.5l3.824-19.037c.283-1.406 1.296-2.554 2.657-3.007l6.55-2.184c2.82-.94 4.715-3.569 4.715-6.541v-6.147c0-1.667 1.034-3.16 2.596-3.745l37.333-14c1.916-.719 4.066.125 4.982 1.956 3.482 6.964 17.174 18.186 22.156 21.922.755.566 1.286 1.381 1.498 2.301l7.435 32.222v-44.116c0-1.198.537-2.333 1.464-3.093.926-.76 2.145-1.066 3.321-.829 21.419 4.286 42.068-9.766 42.274-9.909.676-.467 1.471-.709 2.274-.709z" fill="#4c241d"/></g><path d="m231.666 256.063c-1.024 0-2.047-.391-2.829-1.171-1.562-1.562-1.562-4.095 0-5.657l14-14c1.562-1.562 4.095-1.562 5.657 0s1.562 4.095 0 5.657l-14 14c-.78.781-1.804 1.171-2.828 1.171z" fill="#4c241d"/></g></svg>