<svg id="saddle" enable-background="new 0 0 300 300" height="512" viewBox="0 0 300 300" width="512" xmlns="http://www.w3.org/2000/svg"><g><g><circle cx="174.7" cy="131.79" fill="#e5efef" r="86"/></g><g><path d="m130.7 261.79c-7.732 0-14-6.268-14-14v-38h28v38c0 7.732-6.268 14-14 14z" fill="#9dc1e4"/><path d="m130.7 265.79c-9.925 0-18-8.075-18-18v-38c0-2.209 1.791-4 4-4h28c2.209 0 4 1.791 4 4v38c0 9.925-8.076 18-18 18zm-10-52v34c0 5.514 4.486 10 10 10s10-4.486 10-10v-34z" fill="#4c241d"/></g><g><path d="m175.553 62.053 4.543 113.566c.887 22.186-17.139 40.409-39.338 39.956-23.547-.48-52.509-4.254-73.307-17.56-20.52-13.129-28.712-38.888-21.691-62.215 4.719-15.679 15.376-34.769 39.003-49.536z" fill="#bf7e68"/><path d="m141.585 219.584c-.303 0-.605-.004-.909-.01-32.18-.656-57.541-6.776-75.38-18.19-21.453-13.725-31.062-41.168-23.366-66.737 6.385-21.216 20.464-39.12 40.714-51.776.338-.211.705-.37 1.09-.473l90.789-24.21c1.172-.313 2.426-.076 3.403.645.978.721 1.575 1.847 1.624 3.061l4.543 113.566c.472 11.794-3.817 22.929-12.078 31.353-8.097 8.255-18.873 12.771-30.43 12.771zm-55.205-129.612c-18.566 11.746-30.941 27.549-36.79 46.98-6.67 22.161 1.562 45.885 20.017 57.693 20.652 13.213 50.136 16.5 71.233 16.931 9.691.205 18.715-3.483 25.463-10.365 6.7-6.833 10.179-15.864 9.796-25.432l-4.343-108.574z" fill="#4c241d"/></g><path d="m128.7 149.79c-2.209 0-4-1.791-4-4v-48c0-2.209 1.791-4 4-4s4 1.791 4 4v48c0 2.209-1.791 4-4 4z" fill="#4c241d"/><g><path d="m70.813 61.685c-.561-7.068 5.815-12.711 12.733-11.161 27.219 6.098 102.67 20.736 147.034 6.987 0 0 30.513-11.46 11.717 18.411-11.942 18.977-48.152 30.109-72.974 35.704-16.941 3.818-34.633 2.017-50.489-5.064-20.636-9.218-46.417-24.681-48.021-44.877z" fill="#c1dbdc"/><path d="m151.826 117.56c-11.861 0-23.729-2.481-34.622-7.346-22.017-9.833-48.629-26.181-50.378-48.213-.371-4.681 1.443-9.126 4.979-12.195 3.5-3.037 8.1-4.197 12.615-3.186 12.913 2.893 38.735 8.149 66.601 10.858 33.351 3.24 59.682 1.979 78.269-3.755 2.848-1.055 15.77-5.359 21.123 1.204 4.97 6.093-.318 16.116-4.729 23.125-12.401 19.707-47.892 31.257-75.48 37.476-6.031 1.359-12.205 2.032-18.378 2.032zm-77.026-56.192c1.122 14.137 17.34 28.89 45.665 41.541 15.214 6.794 31.805 8.458 47.979 4.815 36.908-8.32 61.935-20.371 70.469-33.933 7.017-11.151 5.32-13.784 5.301-13.807-1.027-1.259-7.196-.618-12.227 1.271-.073.027-.147.053-.223.076-44.784 13.882-119.184-.204-149.092-6.904-2.013-.452-4.063.066-5.623 1.421-1.597 1.386-2.417 3.399-2.249 5.52z" fill="#4c241d"/></g><path d="m148.7 197.79h-40c-2.209 0-4-1.791-4-4v-28c0-13.234 10.767-24 24-24s24 10.766 24 24v28c0 2.209-1.791 4-4 4zm-36-8h32v-24c0-8.822-7.178-16-16-16s-16 7.178-16 16z" fill="#4c241d"/><g><path d="m209.471 153.594-2.903 2.903c-1.562 1.562-4.095 1.562-5.657 0l-71.381-71.381c-1.562-1.562-1.562-4.095 0-5.657l2.903-2.903c1.562-1.562 4.095-1.562 5.657 0l71.381 71.381c1.562 1.562 1.562 4.095 0 5.657z" fill="#ffec95"/><path d="m203.74 161.668c-2.137 0-4.146-.832-5.657-2.343l-71.38-71.38c-3.119-3.12-3.119-8.195 0-11.314l2.901-2.902c3.121-3.119 8.195-3.118 11.314-.001l71.381 71.381c3.119 3.12 3.119 8.194.001 11.313h-.001l-2.903 2.903c-1.51 1.511-3.52 2.343-5.656 2.343zm-68.478-82.283-2.902 2.902 71.38 71.381 2.906-2.906zm74.209 74.209h.01z" fill="#4c241d"/></g><g><path d="m96.869 56-17.076 13.661c-7.508 6.007-6.469 17.656 1.932 22.334 15.031 8.371 40.071 14.069 69.618-11.784l10.42-12.819z" fill="#ffce56"/><path d="m107.814 103.043c-9.608 0-19.022-2.534-28.035-7.553-5.134-2.859-8.489-8.049-8.977-13.884-.483-5.796 1.943-11.429 6.492-15.068l17.076-13.661c.897-.718 2.062-1.015 3.19-.816l64.894 11.392c1.397.246 2.56 1.212 3.056 2.541s.252 2.821-.644 3.922l-10.42 12.819c-.143.175-.3.338-.47.487-13.888 12.151-28.23 18.782-42.63 19.708-1.18.075-2.357.113-3.532.113zm-9.857-42.791-15.665 12.532c-2.501 2-3.783 4.973-3.518 8.156.269 3.222 2.054 5.978 4.896 7.561 14.485 8.067 37.469 12.668 64.784-11.079l5.907-7.268z" fill="#4c241d"/></g><circle cx="130.7" cy="231.79" fill="#4c241d" r="3.012"/><circle cx="130.7" cy="247.79" fill="#4c241d" r="3.012"/><g><path d="m108.215 56.662c19.49 4.557 74.152 13.483 113.595-17.573 2.919-2.298 7.146.196 6.621 3.874l-2.065 14.458c-1.49 10.428-9.425 18.721-19.762 20.75-25.478 5.001-73.297 10.924-104.19-6.54-3.306-1.869-4.843-5.816-3.733-9.447 1.242-4.063 5.397-6.489 9.534-5.522z" fill="#6b4f5b"/><path d="m157.392 87.313c-19.868 0-40.604-2.961-56.947-12.2-4.892-2.765-7.242-8.695-5.59-14.099 1.855-6.063 8.125-9.683 14.271-8.247 61.831 14.459 97.67-6.947 110.21-16.821 2.609-2.054 6.157-2.308 9.045-.645 2.91 1.678 4.484 4.907 4.011 8.227l-2.065 14.458c-1.725 12.064-10.947 21.753-22.951 24.11-12.811 2.514-31.002 5.217-49.984 5.217zm-50.994-26.861c-1.744 0-3.357 1.151-3.893 2.902-.564 1.844.225 3.861 1.877 4.795 29.715 16.797 76.317 11.03 101.451 6.096 8.669-1.702 15.329-8.69 16.572-17.391l2.065-14.458c.011-.075.003-.084-.014-.104-.046-.056-.122-.087-.149-.088-17.671 13.922-40.062 21.659-66.573 23.021-21.732 1.118-40.925-2.446-50.432-4.668-.301-.071-.604-.105-.904-.105z" fill="#4c241d"/></g><g><path d="m108.7 181.79h40v12h-40z" fill="#edebdc"/><path d="m148.7 197.79h-40c-2.209 0-4-1.791-4-4v-12c0-2.209 1.791-4 4-4h40c2.209 0 4 1.791 4 4v12c0 2.209-1.791 4-4 4zm-36-8h32v-4h-32z" fill="#4c241d"/></g></g></svg>