<?xml version="1.0" encoding="utf-8"?>
<!-- Generator: Adobe Illustrator 22.1.0, SVG Export Plug-In . SVG Version: 6.00 Build 0)  -->
<svg version="1.1" id="Layer_1" xmlns="http://www.w3.org/2000/svg" xmlns:xlink="http://www.w3.org/1999/xlink" x="0px" y="0px"
	 viewBox="0 0 512 512" style="enable-background:new 0 0 512 512;" xml:space="preserve">
<style type="text/css">
	.st0{fill:#99CCFF;}
	.st1{fill:#6699CC;}
	.st2{fill:#CCCCCC;}
	.st3{fill:#666666;}
	.st4{fill:#999999;}
	.st5{fill:#4C4C4C;}
	.st6{fill:#333333;}
	.st7{fill:#4F4F4F;}
	.st8{fill:#3A3A3A;}
	.st9{fill:#1E1D1D;}
</style>
<circle class="st0" cx="256" cy="256" r="256"/>
<g>
	<polygon class="st1" points="176.4,110 268.9,202.4 188.2,202.4 	"/>
	<path class="st1" d="M350.5,111.9L188.2,406.5l103.1,103.1c119.2-16.5,212.2-115,220.1-236.7L350.5,111.9z"/>
</g>
<path class="st2" d="M316.6,206.7c-14-2.4-20.7-20.5-15-40.3c3.9-13.7,23.1-36,34.5-48.5c4.4-4.8,10.1-3.8,11.5,2
	c3.5,15.1,8.6,41.6,4.7,55.3C346.5,195,330.6,209.1,316.6,206.7z"/>
<path class="st3" d="M319.8,213.5c-1.5,0-2.9-0.1-4.4-0.4l0,0c-6.9-1.2-13-5.4-17-11.8c-5.9-9.5-7.1-23.2-3.2-36.8
	c4.1-14.3,21.8-35.7,36-51.1c3.9-4.3,9.1-6.1,13.8-4.8c4.4,1.2,7.7,4.8,8.9,9.8c4.4,18.8,8.7,44.2,4.6,58.6
	C352.4,198.4,336,213.5,319.8,213.5z M341.3,121.9c-0.1,0.1-0.3,0.2-0.4,0.4c-18.4,20-30.4,36.8-33,45.9c-2.9,10-2.2,19.8,1.7,26.2
	c2.1,3.3,4.8,5.3,8.1,5.8l0,0c10.6,1.9,23.5-10.4,28.2-26.8C348.5,164.5,346.8,145.7,341.3,121.9z"/>
<path class="st2" d="M195.4,206.7c14-2.4,20.7-20.5,15-40.3c-3.9-13.7-23.1-36-34.5-48.5c-4.4-4.8-10.1-3.8-11.5,2
	c-3.5,15.1-8.6,41.6-4.7,55.3C165.5,195,181.4,209.1,195.4,206.7z"/>
<path class="st3" d="M192.2,213.5c-16.1,0-32.6-15.1-38.7-36.5c-4.1-14.4,0.2-39.8,4.6-58.6c1.2-5,4.5-8.6,8.9-9.8
	c4.7-1.2,9.9,0.6,13.8,4.8c14.1,15.4,31.9,36.8,36,51.1c3.9,13.6,2.7,27.3-3.2,36.8c-4,6.4-10,10.6-17,11.8
	C195.1,213.4,193.6,213.5,192.2,213.5z M170.7,121.9c-5.5,23.8-7.2,42.6-4.6,51.5c4.7,16.4,17.6,28.6,28.2,26.8
	c3.3-0.6,6-2.5,8.1-5.8c4-6.4,4.6-16.1,1.7-26.2c-2.6-9.1-14.7-25.8-33-45.9C171,122.2,170.8,122,170.7,121.9z"/>
<path class="st4" d="M151.7,269.3c0,94.7,46.7,163.2,104.3,163.2S360.3,364,360.3,269.3S313.6,147.1,256,147.1
	S151.7,174.6,151.7,269.3z"/>
<path class="st3" d="M256,147.1c-0.5,0-1,0-1.4,0v285.3c0.5,0,1,0,1.4,0c57.6,0,104.3-68.5,104.3-163.2S313.6,147.1,256,147.1z"/>
<path class="st5" d="M151.7,269.3c0,74.5,28.9,132.7,69.2,154.2c10.1-1.7,17.2-10.7,17.3-32.8c0.2-61.8-33.6-180.2-47.2-225.4
	C167.1,182.9,151.7,215.1,151.7,269.3z"/>
<path class="st6" d="M360.3,269.3c0,74.5-28.9,132.7-69.2,154.2c-10.1-1.7-17.2-10.7-17.3-32.8c-0.2-61.8,33.6-180.2,47.2-225.4
	C344.9,182.9,360.3,215.1,360.3,269.3z"/>
<circle class="st6" cx="206.9" cy="259.2" r="8.7"/>
<circle cx="305.1" cy="259.2" r="8.7"/>
<ellipse class="st3" cx="254.1" cy="380.2" rx="77.7" ry="50.2"/>
<path class="st7" d="M331.9,380.2c0-27.6-34.6-50-77.3-50.2v100.3C297.3,430.2,331.9,407.8,331.9,380.2z"/>
<circle class="st8" cx="214.2" cy="380.2" r="10.5"/>
<circle class="st9" cx="294.1" cy="380.2" r="10.5"/>
<g>
	<path class="st6" d="M283.7,138.5c-14.5-8.7-67.8-15.9-77.6,16c-16.2,53.1,48.4,84.4,48.4,84.4l-13.5-38c0,0,44.6,34,60,36.2
		l-19.8-31.1l44.7,10.9C326,216.8,323.5,162.3,283.7,138.5z"/>
	<path class="st6" d="M254.6,238.8l0-0.1L254.6,238.8C254.6,238.8,254.6,238.8,254.6,238.8z"/>
</g>
<path d="M301.1,237l-19.8-31.1l44.7,10.9c0,0-2.5-54.5-42.2-78.3c-5.6-3.3-16.8-6.4-29.2-7.2v79.4C269,220.9,291.2,235.6,301.1,237z
	"/>
</svg>
